<svg viewBox="0 0 200 200" xmlns="http://www.w3.org/2000/svg">
  <defs>
    <style>
      .logo-stroke {
        fill: none;
        stroke: #B8860B;
        stroke-width: 2.5;
        stroke-linecap: round;
        stroke-linejoin: round;
      }
      .logo-fill {
        fill: #B8860B;
      }
    </style>
  </defs>
  
  <!-- Círculo externo principal -->
  <circle cx="100" cy="100" r="92" class="logo-stroke"/>
  
  <!-- Linha vertical central -->
  <line x1="100" y1="12" x2="100" y2="188" class="logo-stroke"/>
  
  <!-- Linha horizontal central -->
  <line x1="12" y1="100" x2="188" y2="100" class="logo-stroke"/>
  
  <!-- Curvas meridionais (verticais) -->
  <!-- Meridiano esquerdo -->
  <path d="M 100 12 Q 60 56 60 100 Q 60 144 100 188" class="logo-stroke"/>
  <path d="M 100 12 Q 140 56 140 100 Q 140 144 100 188" class="logo-stroke"/>
  
  <!-- Meridianos intermediários -->
  <path d="M 100 12 Q 75 56 75 100 Q 75 144 100 188" class="logo-stroke"/>
  <path d="M 100 12 Q 125 56 125 100 Q 125 144 100 188" class="logo-stroke"/>
  
  <!-- Segmentos triangulares preenchidos -->
  <!-- Triângulo superior central -->
  <path d="M 100 12 L 125 100 L 100 100 Z" class="logo-fill"/>
  <path d="M 100 12 L 75 100 L 100 100 Z" class="logo-fill"/>
  
  <!-- Triângulo inferior central -->
  <path d="M 100 188 L 125 100 L 100 100 Z" class="logo-fill"/>
  <path d="M 100 188 L 75 100 L 100 100 Z" class="logo-fill"/>
  
  <!-- Segmentos laterais preenchidos -->
  <path d="M 100 12 L 140 100 L 125 100 Z" class="logo-fill"/>
  <path d="M 100 12 L 60 100 L 75 100 Z" class="logo-fill"/>
  <path d="M 100 188 L 140 100 L 125 100 Z" class="logo-fill"/>
  <path d="M 100 188 L 60 100 L 75 100 Z" class="logo-fill"/>
  
  <!-- Segmentos externos preenchidos -->
  <path d="M 100 12 Q 165 30 165 100 L 140 100 Q 140 40 100 12 Z" class="logo-fill"/>
  <path d="M 100 12 Q 35 30 35 100 L 60 100 Q 60 40 100 12 Z" class="logo-fill"/>
  <path d="M 100 188 Q 165 170 165 100 L 140 100 Q 140 160 100 188 Z" class="logo-fill"/>
  <path d="M 100 188 Q 35 170 35 100 L 60 100 Q 60 160 100 188 Z" class="logo-fill"/>
</svg>